<?xml version="1.0" encoding="utf-8"?>
<!-- Generator: Adobe Illustrator 16.0.0, SVG Export Plug-In . SVG Version: 6.00 Build 0)  -->
<!DOCTYPE svg PUBLIC "-//W3C//DTD SVG 1.1//EN" "http://www.w3.org/Graphics/SVG/1.1/DTD/svg11.dtd">
<svg version="1.1" id="Layer_1" xmlns="http://www.w3.org/2000/svg" xmlns:xlink="http://www.w3.org/1999/xlink" x="0px" y="0px"
	 width="341.1px" height="100px" viewBox="0 0 341.1 100" enable-background="new 0 0 341.1 100" xml:space="preserve">
<path opacity="0.6" fill="#FFFFFF" d="M112.8,94.7h-1.5V80.9h1.5V94.7z"/>
<path opacity="0.6" fill="#FFFFFF" d="M125,89.8c0,1.6-0.4,2.8-1.2,3.7c-0.8,0.9-1.9,1.3-3.3,1.3c-0.9,0-1.6-0.2-2.3-0.6
	c-0.7-0.4-1.2-1-1.6-1.8c-0.4-0.8-0.6-1.7-0.6-2.7c0-1.6,0.4-2.8,1.2-3.7s1.9-1.3,3.3-1.3c1.4,0,2.4,0.5,3.2,1.4
	C124.6,87,125,88.3,125,89.8z M117.6,89.8c0,1.2,0.2,2.2,0.7,2.8s1.2,1,2.2,1s1.7-0.3,2.2-1c0.5-0.7,0.8-1.6,0.8-2.9
	c0-1.2-0.2-2.2-0.8-2.8c-0.5-0.6-1.2-1-2.2-1c-1,0-1.7,0.3-2.2,1C117.9,87.6,117.6,88.6,117.6,89.8z"/>
<path opacity="0.6" fill="#FFFFFF" d="M136.7,89.8c0,1.6-0.4,2.8-1.2,3.7c-0.8,0.9-1.9,1.3-3.3,1.3c-0.9,0-1.6-0.2-2.3-0.6
	c-0.7-0.4-1.2-1-1.6-1.8c-0.4-0.8-0.6-1.7-0.6-2.7c0-1.6,0.4-2.8,1.2-3.7c0.8-0.9,1.9-1.3,3.3-1.3c1.4,0,2.4,0.5,3.2,1.4
	C136.3,87,136.7,88.3,136.7,89.8z M129.3,89.8c0,1.2,0.2,2.2,0.7,2.8c0.5,0.7,1.2,1,2.2,1s1.7-0.3,2.2-1c0.5-0.7,0.8-1.6,0.8-2.9
	c0-1.2-0.2-2.2-0.8-2.8s-1.2-1-2.2-1c-1,0-1.7,0.3-2.2,1C129.6,87.6,129.3,88.6,129.3,89.8z"/>
<path opacity="0.6" fill="#FFFFFF" d="M141.5,89.7c0.3-0.4,0.6-0.8,1.2-1.4l3.1-3.3h1.8l-3.9,4.2l4.2,5.6H146l-3.4-4.6l-1.1,1v3.6
	H140V80.9h1.5v7.3C141.5,88.5,141.4,89,141.5,89.7L141.5,89.7z"/>
<path opacity="0.6" fill="#FFFFFF" d="M158.8,93.7c0.3,0,0.5,0,0.8-0.1c0.2,0,0.4-0.1,0.6-0.1v1.1c-0.2,0.1-0.4,0.1-0.7,0.2
	c-0.3,0-0.6,0.1-0.8,0.1c-1.9,0-2.8-1-2.8-3v-5.8h-1.4v-0.7l1.4-0.6l0.6-2.1h0.9V85h2.8v1.1h-2.8v5.7c0,0.6,0.1,1,0.4,1.4
	C158,93.5,158.3,93.7,158.8,93.7z"/>
<path opacity="0.6" fill="#FFFFFF" d="M171.2,89.8c0,1.6-0.4,2.8-1.2,3.7c-0.8,0.9-1.9,1.3-3.3,1.3c-0.9,0-1.6-0.2-2.3-0.6
	c-0.7-0.4-1.2-1-1.6-1.8c-0.4-0.8-0.6-1.7-0.6-2.7c0-1.6,0.4-2.8,1.2-3.7c0.8-0.9,1.9-1.3,3.3-1.3c1.4,0,2.4,0.5,3.2,1.4
	C170.8,87,171.2,88.3,171.2,89.8z M163.8,89.8c0,1.2,0.2,2.2,0.7,2.8c0.5,0.7,1.2,1,2.2,1c1,0,1.7-0.3,2.2-1
	c0.5-0.7,0.8-1.6,0.8-2.9c0-1.2-0.2-2.2-0.8-2.8c-0.5-0.6-1.2-1-2.2-1c-1,0-1.7,0.3-2.2,1C164,87.6,163.8,88.6,163.8,89.8z"/>
<path opacity="0.6" fill="#FFFFFF" d="M178.4,85h1.6l2.1,5.6c0.5,1.3,0.8,2.2,0.9,2.7h0.1c0.1-0.3,0.2-0.8,0.5-1.6s1-3,2.4-6.8h1.6
	L183.3,96c-0.4,1.1-0.9,1.9-1.5,2.3c-0.6,0.5-1.2,0.7-2,0.7c-0.4,0-0.9,0-1.3-0.2v-1.2c0.3,0.1,0.7,0.1,1.1,0.1c1,0,1.7-0.6,2.2-1.7
	l0.5-1.4L178.4,85z"/>
<path opacity="0.6" fill="#FFFFFF" d="M198.2,89.8c0,1.6-0.4,2.8-1.2,3.7c-0.8,0.9-1.9,1.3-3.3,1.3c-0.9,0-1.6-0.2-2.3-0.6
	s-1.2-1-1.6-1.8c-0.4-0.8-0.6-1.7-0.6-2.7c0-1.6,0.4-2.8,1.2-3.7c0.8-0.9,1.9-1.3,3.3-1.3c1.4,0,2.4,0.5,3.2,1.4
	C197.8,87,198.2,88.3,198.2,89.8z M190.7,89.8c0,1.2,0.2,2.2,0.7,2.8s1.2,1,2.2,1s1.7-0.3,2.2-1c0.5-0.7,0.8-1.6,0.8-2.9
	c0-1.2-0.2-2.2-0.8-2.8c-0.5-0.6-1.2-1-2.2-1c-1,0-1.7,0.3-2.2,1C191,87.6,190.7,88.6,190.7,89.8z"/>
<path opacity="0.6" fill="#FFFFFF" d="M202.8,85v6.3c0,0.8,0.2,1.4,0.5,1.8c0.4,0.4,0.9,0.6,1.7,0.6c1,0,1.8-0.3,2.2-0.8
	c0.5-0.6,0.7-1.5,0.7-2.7V85h1.5v9.7h-1.2l-0.2-1.3H208c-0.3,0.5-0.7,0.8-1.3,1.1c-0.5,0.3-1.1,0.4-1.8,0.4c-1.2,0-2.1-0.3-2.7-0.8
	c-0.6-0.6-0.9-1.5-0.9-2.7V85H202.8z"/>
<path opacity="0.6" fill="#FFFFFF" d="M217.8,84.8c0.4,0,0.8,0,1.2,0.1l-0.2,1.4c-0.4-0.1-0.8-0.1-1.1-0.1c-0.8,0-1.5,0.3-2,1
	c-0.6,0.6-0.8,1.4-0.8,2.4v5.2h-1.5V85h1.2l0.2,1.8h0.1c0.4-0.6,0.8-1.1,1.3-1.5C216.6,84.9,217.1,84.8,217.8,84.8z"/>
<path opacity="0.6" fill="#FFFFFF" d="M231.2,86.1h-2.5v8.6h-1.5v-8.6h-1.7v-0.7l1.7-0.5v-0.5c0-2.4,1-3.6,3.1-3.6
	c0.5,0,1.1,0.1,1.8,0.3l-0.4,1.2c-0.6-0.2-1.1-0.3-1.5-0.3c-0.6,0-1,0.2-1.2,0.6c-0.3,0.4-0.4,1-0.4,1.8V85h2.5V86.1z"/>
<path opacity="0.6" fill="#FFFFFF" d="M238.2,84.8c0.4,0,0.8,0,1.2,0.1l-0.2,1.4c-0.4-0.1-0.8-0.1-1.1-0.1c-0.8,0-1.5,0.3-2,1
	c-0.6,0.6-0.8,1.4-0.8,2.4v5.2h-1.5V85h1.2l0.2,1.8h0.1c0.4-0.6,0.8-1.1,1.3-1.5C237,84.9,237.5,84.8,238.2,84.8z"/>
<path opacity="0.6" fill="#FFFFFF" d="M241.7,82.3c0-0.3,0.1-0.6,0.2-0.7c0.2-0.2,0.4-0.2,0.6-0.2c0.2,0,0.4,0.1,0.6,0.2
	c0.2,0.2,0.3,0.4,0.3,0.7c0,0.3-0.1,0.6-0.3,0.7c-0.2,0.2-0.4,0.2-0.6,0.2c-0.2,0-0.5-0.1-0.6-0.2C241.8,82.9,241.7,82.6,241.7,82.3
	z M243.3,94.7h-1.5V85h1.5V94.7z"/>
<path opacity="0.6" fill="#FFFFFF" d="M251.2,94.9c-1.4,0-2.6-0.4-3.4-1.3c-0.8-0.9-1.2-2.1-1.2-3.7c0-1.6,0.4-2.8,1.2-3.7
	c0.8-0.9,1.8-1.4,3.1-1.4c1.2,0,2.2,0.4,2.9,1.2c0.7,0.8,1.1,1.9,1.1,3.2v0.9h-6.7c0,1.1,0.3,2,0.9,2.6c0.5,0.6,1.3,0.9,2.3,0.9
	c1,0,2.1-0.2,3.1-0.7v1.3c-0.5,0.2-1,0.4-1.5,0.5C252.5,94.8,251.9,94.9,251.2,94.9z M250.8,86c-0.8,0-1.4,0.3-1.9,0.8
	c-0.5,0.5-0.7,1.2-0.8,2.1h5.1c0-0.9-0.2-1.6-0.6-2.1C252.2,86.3,251.6,86,250.8,86z"/>
<path opacity="0.6" fill="#FFFFFF" d="M264.7,94.7v-6.3c0-0.8-0.2-1.4-0.5-1.8c-0.4-0.4-0.9-0.6-1.7-0.6c-1,0-1.8,0.3-2.2,0.8
	c-0.5,0.6-0.7,1.5-0.7,2.7v5.1H258V85h1.2l0.2,1.3h0.1c0.3-0.5,0.7-0.9,1.3-1.1s1.2-0.4,1.8-0.4c1.2,0,2.1,0.3,2.6,0.8
	c0.6,0.6,0.9,1.5,0.9,2.7v6.4H264.7z"/>
<path opacity="0.6" fill="#FFFFFF" d="M276.5,93.4L276.5,93.4c-0.8,1-1.8,1.5-3.1,1.5c-1.3,0-2.3-0.4-3-1.3
	c-0.7-0.9-1.1-2.1-1.1-3.7c0-1.6,0.4-2.9,1.1-3.7c0.7-0.9,1.7-1.3,3-1.3c1.3,0,2.3,0.5,3,1.4h0.1l-0.1-0.7l0-0.7v-4h1.5v13.8h-1.2
	L276.5,93.4z M273.6,93.6c1,0,1.7-0.3,2.2-0.8c0.5-0.5,0.7-1.4,0.7-2.7v-0.3c0-1.4-0.2-2.4-0.7-3c-0.5-0.6-1.2-0.9-2.2-0.9
	c-0.9,0-1.5,0.3-2,1c-0.5,0.7-0.7,1.6-0.7,2.8c0,1.2,0.2,2.2,0.7,2.8S272.7,93.6,273.6,93.6z"/>
<path opacity="0.6" fill="#FFFFFF" d="M288,92c0,0.9-0.3,1.6-1,2.1c-0.7,0.5-1.6,0.7-2.8,0.7c-1.3,0-2.3-0.2-3-0.6v-1.4
	c0.5,0.2,1,0.4,1.5,0.6c0.5,0.1,1.1,0.2,1.6,0.2c0.8,0,1.4-0.1,1.8-0.4c0.4-0.2,0.6-0.6,0.6-1.1c0-0.4-0.2-0.7-0.5-1
	c-0.3-0.3-1-0.6-1.9-1c-0.9-0.3-1.6-0.6-1.9-0.9s-0.7-0.5-0.9-0.9c-0.2-0.3-0.3-0.7-0.3-1.1c0-0.8,0.3-1.4,1-1.9
	c0.6-0.5,1.5-0.7,2.7-0.7c1.1,0,2.1,0.2,3.1,0.6l-0.5,1.2c-1-0.4-1.9-0.6-2.7-0.6c-0.7,0-1.2,0.1-1.6,0.3c-0.4,0.2-0.5,0.5-0.5,0.9
	c0,0.3,0.1,0.5,0.2,0.7c0.1,0.2,0.3,0.4,0.6,0.5c0.3,0.2,0.9,0.4,1.7,0.7c1.2,0.4,1.9,0.8,2.3,1.3C287.8,90.9,288,91.4,288,92z"/>
<path opacity="0.9" fill="#FFFFFF" d="M122.6,76.2h-12V41.7h-4.8V31.6h4.8v-2c0-12.9,3.3-17,13-17c2.9,0,10.2,1.2,10.2,1.2l-0.2,9.7
	c0,0-3.9-0.2-6.8-0.2c-3.4,0-4.3,1.8-4.3,6.3v1.9h10.8v10.2h-10.8V76.2z"/>
<path opacity="0.9" fill="#FFFFFF" d="M174.5,64.1c0.2,2.7,0.5,3.8,2.9,4.2l-0.4,9c-6,0-9-0.6-12.8-3.1c0,0-6.4,3.1-13.1,3.1
	c-9.4,0-13.8-5.2-13.8-14.7c0-10.1,5.8-13,15.6-13.7l9.6-0.7v-2.8c0-3.8-1.7-4.8-5.3-4.8c-5.9,0-16.8,0.7-16.8,0.7l-0.4-8.3
	c0,0,9.6-2.6,18.1-2.6c11.6,0,16.3,4.6,16.3,15V64.1z M154.4,57.3c-3.1,0.3-5,1.8-5,5c0,3.1,1.2,5.3,4.4,5.3c3.8,0,8.8-1.4,8.8-1.4
	v-9.6L154.4,57.3z"/>
<path opacity="0.9" fill="#FFFFFF" d="M217,32.4l-0.4,9.5c0,0-7.1-0.7-10.5-0.7c-8.6,0-10.2,3.3-10.2,12.2c0,10,1.7,13.1,10.3,13.1
	c3.4,0,10.4-0.7,10.4-0.7l0.4,9.6c0,0-9.6,1.9-14.6,1.9c-13.3,0-18.6-7.1-18.6-23.9c0-15.8,5.5-23,18.8-23
	C207.9,30.5,217,32.4,217,32.4z"/>
<rect x="225.8" y="31.6" opacity="0.9" fill="#FFFFFF" width="12" height="44.7"/>
<path opacity="0.9" fill="#FFFFFF" d="M248.9,76.2V31.6h11.9v2.5c0,0,6.1-3.6,11.2-3.6c12.5,0,15.7,7.9,15.7,21.5v24.2h-12V52.4
	c0-6.8-0.9-11.2-6.7-11.2c-4.2,0-8.1,1.6-8.1,1.6v33.4H248.9z"/>
<path opacity="0.9" fill="#FFFFFF" d="M296,84.3c0-4.1,2-7.1,6.4-10.6c-2-1.3-3.3-4-3.3-6.8c0-2.2,3.5-7.1,3.5-7.1
	c-3.1-2.2-6.1-5.5-6.1-13.3c0-11.5,8.3-15.8,18.8-15.8c3.9,0,9,1.2,9,1.2l14.4-0.4v9.6l-6.7-0.5c0.8,1.3,2,3.5,2,6.1
	c0,12.5-6.6,15.7-18.8,15.7c-1,0-2.9-0.2-3.7-0.4c0,0-0.9,2.3-0.9,3.5c0,2.3,1.1,2.9,8.7,2.9c15.2,0.1,19.5,3.5,19.5,13.5
	c0,10.9-9.6,15-21.2,15C304.5,96.8,296,94.4,296,84.3z M310.2,78c-1.5,1.5-2.4,2.9-2.4,5.1c0,2.6,3.1,3.8,9.8,3.8c5.8,0,9-1.2,9-4.5
	c0-3.4-1.8-3.8-8.4-3.8C315.8,78.6,310.2,78,310.2,78z M322.2,46.5c0-4.2-2-6.5-6.8-6.5s-6.9,2.3-6.9,6.5c0,4.2,2.1,6.6,6.9,6.6
	S322.2,50.7,322.2,46.5z"/>
<path id="shape_5_" opacity="0.9" fill="#FFFFFF" d="M231.8,13.4c-3.6,0-6.5,2.9-6.5,6.5c0,3.6,2.9,6.5,6.5,6.5
	c3.6,0,6.5-2.9,6.5-6.5C238.3,16.3,235.4,13.4,231.8,13.4z"/>
<path id="shape_2_" fill="#88CCDC" d="M14.1,62.6l-7.7,7.7C-3,52.5-0.2,29.9,14.8,15C23.7,6.1,35.6,1.2,48.2,1.2
	c8.4,0,16.4,2.2,23.5,6.2c-3.2,1.6-5.6,4.6-6.6,8.1c-5.2-2.7-10.9-4.1-16.9-4.1c-9.9,0-19.2,3.8-26.2,10.8
	C11.1,33.1,8.5,49.2,14.1,62.6z M89.2,24.9c-1.6,3.2-4.6,5.6-8.1,6.6c7.1,13.9,4.9,31.4-6.8,43c-7,7-16.3,10.8-26.2,10.8
	c-7.2,0-14.1-2.1-20-5.9l24.9-24.9l0,15.3c0,3.8,3.1,6.9,6.9,6.9c3.8,0,6.9-3.1,6.9-6.9l0-40.1l-40.2,0c-3.8,0-6.9,3.1-6.9,6.9
	c0,3.8,3.1,6.9,6.9,6.9l15.3,0L9.7,75.7c1.5,2.1,3.2,4.1,5.1,6c8.9,8.9,20.8,13.8,33.4,13.8c12.6,0,24.5-4.9,33.4-13.8
	C97,66.3,99.5,42.9,89.2,24.9z"/>
<circle id="shape_1_" fill="#F68E21" cx="77.6" cy="18.9" r="8"/>
</svg>
